<svg width="35" height="33" viewBox="0 0 35 33" fill="none" xmlns="http://www.w3.org/2000/svg">
<path d="M11 0L0 7H11V0Z" fill="#7D0F00"/>
<path d="M11 0H30C32.7614 0 35 2.23858 35 5V28C35 30.7614 32.7614 33 30 33H16C13.2386 33 11 30.7614 11 28V0Z" fill="#A61804"/>
<path d="M7 2.5C8.6 2.1 10.6667 2.50007 11 3.00007V0L7 2.5Z" fill="#A61804"/>
<path d="M28.0258 14.2896C27.5032 14.2986 27.0692 14.7645 27.0958 15.2932C27.1047 15.5889 27.2464 15.8398 27.4589 16.0101C26.3607 17.4976 25.2448 17.6141 23.9517 15.1498C24.4122 14.9169 24.6691 14.3254 24.3325 13.734C24.1731 13.4473 23.8454 13.3039 23.5177 13.3218C23.5089 13.3218 23.5089 13.3218 23.5 13.3218C23.5 13.3218 23.4911 13.3218 23.4823 13.3218C23.1546 13.3128 22.8357 13.4473 22.6675 13.734C22.3309 14.3254 22.5878 14.9169 23.0483 15.1498C21.7552 17.6141 20.6393 17.4976 19.5411 16.0101C19.7536 15.8398 19.8953 15.58 19.9042 15.2932C19.9219 14.7645 19.4968 14.2986 18.9742 14.2896C18.434 14.2806 18 14.7108 18 15.2574C18 15.7861 18.4251 16.2252 18.9565 16.2252C18.9919 16.2252 19.0362 16.2252 19.0717 16.2162L19.4348 19.8185C19.4614 20.1052 19.7005 20.3203 19.9839 20.3203H23.5H27.0161C27.2995 20.3203 27.5386 20.1052 27.5652 19.8185L27.9283 16.2162C27.9638 16.2252 27.9992 16.2252 28.0435 16.2252C28.566 16.2252 29 15.795 29 15.2574C29 14.7108 28.5572 14.2806 28.0258 14.2896Z" fill="white"/>
</svg>
