<svg width="44" height="54" viewBox="0 0 44 54" fill="none" xmlns="http://www.w3.org/2000/svg">
<path d="M16.0478 0H4.65905C2.07069 0 0 2.06848 0 4.65409V49.2989C0 51.8845 2.07069 53.953 4.65905 53.953H16.0478C18.6362 53.953 20.7069 51.8845 20.7069 49.2989V4.65409C20.7069 2.06848 18.6362 0 16.0478 0ZM16.0478 50.9364H4.65905C3.79626 50.9364 3.01975 50.2469 3.01975 49.2989V4.65409C3.01975 3.79222 3.70998 3.01654 4.65905 3.01654H16.0478C16.9106 3.01654 17.6871 3.70603 17.6871 4.65409V7.67063H14.1497C13.2869 7.67063 12.5967 8.36012 12.5967 9.22199C12.5967 10.0839 13.2869 10.7734 14.1497 10.7734H17.6871V14.8241H11.7339C10.8711 14.8241 10.1809 15.5136 10.1809 16.3755C10.1809 17.2374 10.8711 17.9269 11.7339 17.9269H17.6871V21.9776H14.1497C13.2869 21.9776 12.5967 22.6671 12.5967 23.529C12.5967 24.3909 13.2869 25.0804 14.1497 25.0804H17.6871V29.1311H11.7339C10.8711 29.1311 10.1809 29.8206 10.1809 30.6825C10.1809 31.5444 10.8711 32.2339 11.7339 32.2339H17.6871V36.2847H14.1497C13.2869 36.2847 12.5967 36.9741 12.5967 37.836C12.5967 38.6979 13.2869 39.3874 14.1497 39.3874H17.6871V43.4382H11.7339C10.8711 43.4382 10.1809 44.1277 10.1809 44.9895C10.1809 45.8514 10.8711 46.5409 11.7339 46.5409H17.6871V49.5574C17.6871 50.1607 16.9106 50.9364 16.0478 50.9364Z" fill="#A61804"/>
<path d="M40.8103 0.344976C38.9121 0.258789 36.9277 0.258789 34.9433 0.258789C33.1315 0.258789 31.751 1.72396 31.6647 3.87864C31.6647 4.91288 31.6647 5.94712 31.5785 6.89517V7.75704C31.5785 7.84323 31.5785 7.92942 31.5785 8.0156H31.4922H32.355H32.6138L42.7947 8.10179H43.83V6.89517C43.83 5.94712 43.83 4.99906 43.83 4.05101C44.0025 1.89634 42.7084 0.344976 40.8103 0.344976Z" fill="#A61804"/>
<path d="M31.8366 10.1704L31.7503 12.756V18.6167C31.7503 25.8564 31.6641 33.0961 31.6641 40.3358C31.6641 40.9391 31.7503 41.4562 31.9229 41.9733C32.7857 44.559 33.6485 47.2307 34.5112 49.8163L35.1152 51.7125C35.2878 52.1434 35.4603 52.5743 35.7191 52.9191C36.4957 53.9533 37.7898 54.2981 38.8252 53.6086C39.1703 53.4362 39.4291 53.1776 39.6017 52.8329C39.7742 52.4881 39.9468 52.1434 40.1193 51.6263L40.7233 49.8163C41.4998 47.6617 42.19 45.5932 42.9665 43.4385L43.0528 43.18C43.3979 42.2319 43.743 41.1115 43.743 39.8187C43.743 35.9403 43.743 32.148 43.743 28.2696L43.8293 11.6356C43.8293 11.5494 43.8293 11.4632 43.8293 11.377L43.9156 10.2566L31.8366 10.1704ZM41.241 42.6628L41.1547 42.9214C40.637 44.559 40.1193 45.9379 39.6017 47.3169C38.8252 47.3169 38.1349 47.3169 37.3584 47.3169H35.6329C34.9426 45.3346 34.3387 43.4385 33.6485 41.4562C33.5622 41.2839 33.5622 41.1115 33.5622 40.9391C34.1661 41.1115 34.8564 41.1115 35.7191 40.6805C36.1505 40.9391 36.7545 41.1115 37.531 41.1115C38.1349 41.1115 38.7389 40.9391 39.4291 40.5944C39.9468 40.9391 40.8096 41.1977 41.7586 41.0253C41.5861 41.5424 41.4135 42.0595 41.241 42.6628Z" fill="#A61804"/>
</svg>
