<svg width="55" height="43" viewBox="0 0 55 43" fill="none" xmlns="http://www.w3.org/2000/svg">
<path d="M37.3694 1.01808C37.1429 0.339361 36.4635 0 35.784 0H18.5715C17.892 0 17.2126 0.452481 16.9861 1.01808L14.7213 6.56097H12.4565L17.0993 11.1989L22.5349 10.1808C22.8746 10.0677 23.3276 10.1808 23.554 10.5202L32.3868 19.3436C32.8398 19.796 32.8398 20.4748 32.3868 20.9272L25.2526 28.0538C24.7997 28.5063 24.1202 28.5063 23.6673 28.0538L14.8345 19.2304C14.608 19.0042 14.4948 18.5517 14.4948 18.2124L15.514 12.7826L10.8711 8.14466V42.5332H43.4844V6.56097H39.6342L37.3694 1.01808ZM18.4582 6.56097L19.8171 3.39361H34.7649L36.1237 6.56097H18.4582Z" fill="#A61804"/>
<path d="M29.8958 20.1352L22.3086 12.5562L17.6657 13.348L16.873 17.9859L24.4602 25.565L29.8958 20.1352Z" fill="#A61804"/>
<path d="M50.9591 6.56104H45.75V42.5333H50.9591C52.8841 42.5333 54.3563 41.0627 54.3563 39.1397V9.95464C54.3563 8.0316 52.8841 6.56104 50.9591 6.56104Z" fill="#A61804"/>
<path d="M0 9.95464V39.1397C0 41.0627 1.47212 42.5333 3.39721 42.5333H8.60626V6.56104H3.39721C1.47212 6.56104 0 8.0316 0 9.95464Z" fill="#A61804"/>
</svg>
