<svg width="57" height="57" viewBox="0 0 57 57" fill="none" xmlns="http://www.w3.org/2000/svg">
<path d="M50.4545 28.0652C50.4545 29.2105 50.3742 30.35 50.2252 31.4839C50.2596 31.2319 50.2939 30.9742 50.3283 30.7223C50.0245 32.9212 49.4398 35.0687 48.5742 37.1131C48.6716 36.884 48.7691 36.6549 48.8608 36.4316C48.0124 38.4244 46.9117 40.3027 45.5875 42.0207C45.7365 41.826 45.8856 41.637 46.0346 41.4423C44.7161 43.1431 43.1855 44.6721 41.4829 45.9892C41.6778 45.8403 41.867 45.6914 42.0619 45.5425C40.3421 46.8653 38.4618 47.9648 36.4669 48.8123C36.6962 48.715 36.9255 48.6176 37.1491 48.526C35.1025 49.385 32.9528 49.9748 30.7515 50.2783C31.0037 50.244 31.2617 50.2096 31.5139 50.1753C29.2438 50.4788 26.9393 50.4788 24.6692 50.1753C24.9214 50.2096 25.1794 50.244 25.4316 50.2783C23.2303 49.9748 21.0805 49.3907 19.034 48.526C19.2633 48.6234 19.4926 48.7207 19.7162 48.8123C17.7212 47.9648 15.8409 46.8653 14.1211 45.5425C14.3161 45.6914 14.5052 45.8403 14.7001 45.9892C12.9975 44.6721 11.4669 43.1431 10.1484 41.4423C10.2975 41.637 10.4465 41.826 10.5956 42.0207C9.27135 40.3027 8.17069 38.4244 7.32226 36.4316C7.41971 36.6607 7.51717 36.8897 7.60889 37.1131C6.749 35.0687 6.15854 32.9212 5.85471 30.7223C5.8891 30.9742 5.9235 31.2319 5.9579 31.4839C5.65407 29.2162 5.65407 26.9141 5.9579 24.6464C5.9235 24.8984 5.8891 25.1561 5.85471 25.408C6.15854 23.2091 6.74327 21.0616 7.60889 19.0172C7.51144 19.2463 7.41398 19.4754 7.32226 19.6987C8.17069 17.7059 9.27135 15.8276 10.5956 14.1096C10.4465 14.3043 10.2975 14.4933 10.1484 14.688C11.4669 12.9872 12.9975 11.4582 14.7001 10.1411C14.5052 10.29 14.3161 10.4389 14.1211 10.5878C15.8409 9.26498 17.7212 8.16549 19.7162 7.31797C19.4869 7.41532 19.2576 7.51267 19.034 7.60429C21.0805 6.74531 23.2303 6.15548 25.4316 5.85198C25.1794 5.88633 24.9214 5.92069 24.6692 5.95505C26.9393 5.65155 29.2438 5.65155 31.5139 5.95505C31.2617 5.92069 31.0037 5.88633 30.7515 5.85198C32.9528 6.15548 35.1025 6.73959 37.1491 7.60429C36.9198 7.50694 36.6905 7.40959 36.4669 7.31797C38.4618 8.16549 40.3421 9.26498 42.0619 10.5878C41.867 10.4389 41.6778 10.29 41.4829 10.1411C43.1855 11.4582 44.7161 12.9872 46.0346 14.688C45.8856 14.4933 45.7365 14.3043 45.5875 14.1096C46.9117 15.8276 48.0124 17.7059 48.8608 19.6987C48.7633 19.4696 48.6659 19.2406 48.5742 19.0172C49.4341 21.0616 50.0245 23.2091 50.3283 25.408C50.2939 25.1561 50.2596 24.8984 50.2252 24.6464C50.3742 25.7803 50.4545 26.9198 50.4545 28.0652C50.4545 28.7981 50.7755 29.5712 51.2914 30.0923C51.7902 30.5905 52.6042 30.9628 53.3208 30.9284C54.0603 30.8941 54.8284 30.6535 55.3501 30.0923C55.8661 29.5311 56.1928 28.844 56.1871 28.0652C56.1813 25.179 55.7457 22.247 54.8514 19.4983C53.9858 16.8412 52.7475 14.2814 51.1252 12.008C50.2596 10.794 49.3137 9.62003 48.2761 8.54344C47.2327 7.46113 46.0919 6.51053 44.8996 5.60001C42.681 3.89923 40.1988 2.61649 37.579 1.65444C34.8789 0.658021 31.984 0.136907 29.1062 0.0281033C26.2055 -0.0864271 23.236 0.274344 20.4442 1.0646C17.7556 1.82623 15.1358 3.00017 12.7969 4.53488C10.4867 6.05813 8.35413 7.89634 6.59422 10.0323C5.6426 11.1891 4.74831 12.3974 3.97441 13.6801C3.19478 14.9801 2.56419 16.343 1.98519 17.746C0.890264 20.4088 0.299805 23.2434 0.0762326 26.1067C-0.147339 28.9986 0.127826 31.9592 0.810008 34.7824C1.46926 37.5025 2.57565 40.1653 4.02601 42.559C5.45916 44.9183 7.25347 47.1116 9.31721 48.944C11.3981 50.788 13.7256 52.3742 16.2651 53.5195C17.6524 54.1495 19.0741 54.7049 20.5474 55.1115C22.0494 55.5295 23.5857 55.7815 25.1335 55.9648C28.0514 56.3026 31.0209 56.1137 33.8929 55.5295C36.6503 54.9683 39.3447 53.9376 41.8039 52.5689C44.2059 51.2289 46.4416 49.4995 48.3391 47.5181C50.2538 45.5196 51.9105 43.2233 53.1488 40.7437C54.4157 38.2068 55.3501 35.4925 55.7801 32.6865C56.0151 31.1575 56.1699 29.6285 56.1756 28.0766C56.1756 27.3436 55.8546 26.5705 55.3387 26.0494C54.8399 25.5512 54.0259 25.179 53.3093 25.2133C52.5698 25.2477 51.8016 25.4882 51.28 26.0494C50.7812 26.5992 50.4545 27.2863 50.4545 28.0652Z" fill="#A61804"/>
<path d="M37.659 27.9449C37.659 30.1668 37.5156 32.383 37.2233 34.582C37.2577 34.33 37.2921 34.0723 37.3265 33.8203C36.8679 37.1875 36.071 40.5261 34.7468 43.6585C34.8442 43.4294 34.9417 43.2004 35.0334 42.977C34.2996 44.7065 33.4054 46.3786 32.2588 47.8789C32.4079 47.6842 32.5569 47.4953 32.706 47.3006C32.0467 48.1538 31.3015 48.9441 30.4531 49.6084C30.648 49.4595 30.8371 49.3106 31.0321 49.1617C30.4588 49.6026 29.8397 49.9806 29.1747 50.2669C29.404 50.1696 29.6333 50.0722 29.8569 49.9806C29.3065 50.2096 28.7333 50.3757 28.1428 50.4559C28.3951 50.4215 28.653 50.3872 28.9053 50.3528C28.3664 50.4215 27.8275 50.4215 27.2887 50.3528C27.5409 50.3872 27.7989 50.4215 28.0511 50.4559C27.4606 50.3757 26.8874 50.2154 26.337 49.9806C26.5663 50.0779 26.7956 50.1753 27.0192 50.2669C26.3542 49.9806 25.7351 49.6026 25.1619 49.1617C25.3568 49.3106 25.5459 49.4595 25.7408 49.6084C24.8867 48.9441 24.1472 48.1538 23.4879 47.3006C23.637 47.4953 23.786 47.6842 23.9351 47.8789C22.7886 46.3843 21.8943 44.7122 21.1605 42.977C21.2579 43.2061 21.3554 43.4352 21.4471 43.6585C20.1286 40.5204 19.3261 37.1818 18.8674 33.8203C18.9018 34.0723 18.9362 34.33 18.9706 34.582C18.512 31.1346 18.4146 27.6414 18.6725 24.1711C18.7413 23.2205 18.8445 22.2699 18.9706 21.3251C18.9362 21.577 18.9018 21.8347 18.8674 22.0867C19.3146 18.7997 20.1 15.5413 21.3841 12.4776C21.2866 12.7067 21.1892 12.9357 21.0974 13.159C21.8312 11.4182 22.737 9.73459 23.8949 8.23424C23.7459 8.42894 23.5969 8.61792 23.4478 8.81262C24.1071 7.96509 24.8466 7.18629 25.7007 6.52774C25.5058 6.67663 25.3166 6.82551 25.1217 6.9744C25.695 6.53346 26.3141 6.16124 26.9791 5.87491C26.7498 5.97226 26.5205 6.06961 26.2969 6.16124C26.8472 5.93218 27.4205 5.76611 28.011 5.68021C27.7587 5.71457 27.5008 5.74893 27.2485 5.78329C27.8161 5.70884 28.395 5.70884 28.9626 5.78329C28.7103 5.74893 28.4524 5.71457 28.2001 5.68021C28.7906 5.76611 29.3639 5.92645 29.9142 6.16124C29.6849 6.06389 29.4556 5.96654 29.232 5.87491C29.897 6.16124 30.5161 6.53346 31.0894 6.9744C30.8945 6.82551 30.7053 6.67663 30.5104 6.52774C31.3588 7.18629 32.0983 7.96509 32.7633 8.81262C32.6143 8.61792 32.4652 8.42894 32.3162 8.23424C33.4741 9.73459 34.3799 11.4182 35.1137 13.159C35.0162 12.93 34.9188 12.7009 34.827 12.4776C36.1111 15.5413 36.8965 18.7997 37.3437 22.0867C37.3093 21.8347 37.2749 21.577 37.2405 21.3251C37.5156 23.5183 37.6532 25.7345 37.659 27.9449C37.659 28.6779 37.98 29.451 38.4959 29.9721C38.9947 30.4703 39.8087 30.8425 40.5253 30.8082C41.2648 30.7738 42.0329 30.5333 42.5546 29.9721C43.0705 29.4109 43.3973 28.7237 43.3916 27.9449C43.3916 25.0817 43.1336 22.2241 42.6807 19.3952C42.3024 17.0645 41.7463 14.751 40.9495 12.5291C40.1985 10.4332 39.287 8.3545 38.066 6.48765C37.4698 5.57713 36.8048 4.69525 36.071 3.88781C35.3888 3.13763 34.6149 2.49626 33.7952 1.89498C32.2703 0.778308 30.4588 0.16557 28.5842 0.0224068C26.7555 -0.120756 24.8638 0.434716 23.2816 1.32805C21.4872 2.34737 20.1057 3.83054 18.8732 5.44542C17.5604 7.16338 16.6317 9.10467 15.8062 11.0975C14.9291 13.2106 14.2985 15.4268 13.8399 17.6658C13.2839 20.4088 12.9514 23.2148 12.8482 26.0094C12.745 28.6779 12.8539 31.3522 13.175 34.0036C13.496 36.6492 13.9661 39.2777 14.7342 41.8317C15.4049 44.0651 16.282 46.2812 17.4114 48.3256C18.3687 50.0493 19.5554 51.7272 21.0114 53.0672C22.4045 54.3442 24.0784 55.4265 25.9415 55.856C27.7186 56.2683 29.6448 56.1996 31.3416 55.5124C32.2359 55.1459 33.0671 54.745 33.841 54.1667C34.6608 53.5482 35.429 52.9068 36.1112 52.1338C37.4984 50.5647 38.6335 48.7895 39.5278 46.894C41.752 42.1753 42.8412 37.0501 43.2425 31.8676C43.3457 30.5619 43.3916 29.2506 43.3916 27.9392C43.3916 27.2062 43.0705 26.4331 42.5546 25.912C42.0559 25.4138 41.2418 25.0416 40.5253 25.0759C39.7858 25.1103 39.0176 25.3508 38.4959 25.912C37.98 26.4847 37.659 27.1718 37.659 27.9449Z" fill="#A61804"/>
<path d="M25.2545 2.89134C25.2545 3.34373 25.2545 3.7904 25.2545 4.2428C25.2545 5.46827 25.2545 6.69375 25.2545 7.9135C25.2545 9.71735 25.2545 11.5212 25.2545 13.3193C25.2545 15.5298 25.2545 17.7345 25.2545 19.9449C25.2545 22.3615 25.2545 24.7838 25.2545 27.2004C25.2545 29.6342 25.2545 32.0622 25.2545 34.496C25.2545 36.7752 25.2545 39.0486 25.2545 41.3278C25.2545 43.2519 25.2545 45.176 25.2545 47.1001C25.2545 48.4802 25.2545 49.866 25.2545 51.2461C25.2545 51.8989 25.2488 52.5517 25.2545 53.2046C25.2545 53.2332 25.2545 53.2618 25.2545 53.2905C25.2545 54.0235 25.5755 54.7965 26.0915 55.3176C26.5902 55.8159 27.4042 56.1881 28.1208 56.1537C28.8603 56.1194 29.6285 55.8788 30.1502 55.3176C30.6661 54.7565 30.9871 54.0693 30.9871 53.2905C30.9871 52.8381 30.9871 52.3914 30.9871 51.939C30.9871 50.7135 30.9871 49.488 30.9871 48.2683C30.9871 46.4644 30.9871 44.6606 30.9871 42.8625C30.9871 40.652 30.9871 38.4473 30.9871 36.2369C30.9871 33.8203 30.9871 31.398 30.9871 28.9814C30.9871 26.5476 30.9871 24.1196 30.9871 21.6858C30.9871 19.4066 30.9871 17.1332 30.9871 14.854C30.9871 12.9299 30.9871 11.0058 30.9871 9.08171C30.9871 7.70162 30.9871 6.3158 30.9871 4.93571C30.9871 4.28288 30.9929 3.63006 30.9871 2.97724C30.9871 2.9486 30.9871 2.91997 30.9871 2.89134C30.9871 2.15834 30.6661 1.38526 30.1502 0.86415C29.6514 0.365943 28.8374 -0.00628089 28.1208 0.0280782C27.3813 0.0624374 26.6131 0.302951 26.0915 0.86415C25.5813 1.42535 25.2545 2.11826 25.2545 2.89134Z" fill="#A61804"/>
<path d="M4.90757 39.1402C5.32032 39.1402 5.73307 39.1402 6.14582 39.1402C7.26941 39.1402 8.393 39.1402 9.5166 39.1402C11.1848 39.1402 12.8587 39.1402 14.5269 39.1402C16.5562 39.1402 18.5856 39.1402 20.6149 39.1402C22.8392 39.1402 25.0635 39.1402 27.2877 39.1402C29.5349 39.1402 31.7763 39.1402 34.0235 39.1402C36.1159 39.1402 38.2083 39.1402 40.3007 39.1402C42.0779 39.1402 43.855 39.1402 45.6321 39.1402C46.9047 39.1402 48.1774 39.1402 49.4443 39.1402C50.0462 39.1402 50.6481 39.1459 51.25 39.1402C51.2787 39.1402 51.3016 39.1402 51.3303 39.1402C52.0641 39.1402 52.838 38.8195 53.3596 38.3041C53.8584 37.8059 54.231 36.9928 54.1966 36.2769C54.1622 35.5382 53.9214 34.7709 53.3596 34.2497C52.7979 33.7344 52.1099 33.4137 51.3303 33.4137C50.9175 33.4137 50.5048 33.4137 50.0921 33.4137C48.9685 33.4137 47.8449 33.4137 46.7213 33.4137C45.0531 33.4137 43.3792 33.4137 41.711 33.4137C39.6816 33.4137 37.6523 33.4137 35.6229 33.4137C33.3987 33.4137 31.1744 33.4137 28.9502 33.4137C26.703 33.4137 24.4615 33.4137 22.2143 33.4137C20.1219 33.4137 18.0295 33.4137 15.9371 33.4137C14.16 33.4137 12.3829 33.4137 10.6058 33.4137C9.33315 33.4137 8.06051 33.4137 6.7936 33.4137C6.19168 33.4137 5.58975 33.408 4.98783 33.4137C4.95917 33.4137 4.93624 33.4137 4.90757 33.4137C4.1738 33.4137 3.39989 33.7344 2.87823 34.2497C2.37949 34.748 2.00687 35.5611 2.04126 36.2769C2.07566 37.0157 2.31643 37.783 2.87823 38.3041C3.44002 38.8195 4.13367 39.1402 4.90757 39.1402Z" fill="#A61804"/>
<path d="M5.48179 22.8829C5.88881 22.8829 6.29009 22.8829 6.6971 22.8829C7.79203 22.8829 8.8927 22.8829 9.98763 22.8829C11.61 22.8829 13.2323 22.8829 14.8546 22.8829C16.8438 22.8829 18.8273 22.8829 20.8165 22.8829C22.9835 22.8829 25.1504 22.8829 27.3173 22.8829C29.5072 22.8829 31.6913 22.8829 33.8812 22.8829C35.9277 22.8829 37.98 22.8829 40.0265 22.8829C41.752 22.8829 43.4718 22.8829 45.1973 22.8829C46.4356 22.8829 47.6796 22.8829 48.9178 22.8829C49.5083 22.8829 50.0987 22.8886 50.6892 22.8829C50.7121 22.8829 50.7408 22.8829 50.7637 22.8829C51.4975 22.8829 52.2714 22.5622 52.7931 22.0468C53.2918 21.5486 53.6644 20.7354 53.63 20.0196C53.5956 19.2809 53.3549 18.5135 52.7931 17.9924C52.2313 17.477 51.5434 17.1564 50.7637 17.1564C50.3567 17.1564 49.9554 17.1564 49.5484 17.1564C48.4535 17.1564 47.3528 17.1564 46.2579 17.1564C44.6355 17.1564 43.0132 17.1564 41.3909 17.1564C39.4017 17.1564 37.4182 17.1564 35.429 17.1564C33.262 17.1564 31.0951 17.1564 28.9282 17.1564C26.7383 17.1564 24.5542 17.1564 22.3643 17.1564C20.3178 17.1564 18.2655 17.1564 16.219 17.1564C14.4935 17.1564 12.7737 17.1564 11.0482 17.1564C9.80992 17.1564 8.56594 17.1564 7.32769 17.1564C6.73723 17.1564 6.14677 17.1506 5.55631 17.1564C5.53338 17.1564 5.50472 17.1564 5.48179 17.1564C4.74802 17.1564 3.97411 17.477 3.45245 17.9924C2.95371 18.4906 2.58109 19.3038 2.61548 20.0196C2.64988 20.7583 2.89065 21.5257 3.45245 22.0468C4.01424 22.5565 4.70789 22.8829 5.48179 22.8829Z" fill="#A61804"/>
</svg>
