<svg width="50" height="52" viewBox="0 0 50 52" fill="none" xmlns="http://www.w3.org/2000/svg">
<path d="M32.4505 13.8318H17.5482C15.1696 13.8318 13.2344 15.844 13.2344 18.3173V33.8125C13.2344 36.2858 15.1696 38.2986 17.5482 38.2986H32.4505C34.8291 38.2986 36.7649 36.2864 36.7649 33.8125V18.3173C36.7649 15.844 34.8297 13.8318 32.4505 13.8318ZM24.9994 34.1195C20.7284 34.1195 17.2535 30.5063 17.2535 26.0649C17.2535 21.624 20.7284 18.0109 24.9994 18.0109C29.2708 18.0109 32.7458 21.624 32.7458 26.0649C32.7458 30.5058 29.2703 34.1195 24.9994 34.1195ZM32.9948 19.6761C31.9837 19.6761 31.1615 18.8212 31.1615 17.7705C31.1615 16.7198 31.9837 15.8648 32.9948 15.8648C34.0052 15.8648 34.8275 16.7198 34.8275 17.7705C34.8275 18.8212 34.0052 19.6761 32.9948 19.6761Z" fill="#A61804"/>
<path d="M25.0005 21.4141C22.535 21.4141 20.5273 23.5004 20.5273 26.0641C20.5273 28.6289 22.535 30.7158 25.0005 30.7158C27.4671 30.7158 29.473 28.6289 29.473 26.0641C29.473 23.501 27.4665 21.4141 25.0005 21.4141Z" fill="#A61804"/>
<path d="M25 0C11.1934 0 0 11.6388 0 25.9946C0 40.3505 11.1934 51.9893 25 51.9893C38.8066 51.9893 50 40.3505 50 25.9946C50 11.6388 38.8066 0 25 0ZM40.0382 33.8123C40.0382 38.1628 36.6352 41.7012 32.4511 41.7012H17.5489C13.3654 41.7012 9.96179 38.1628 9.96179 33.8123V18.3171C9.96179 13.9672 13.3654 10.4282 17.5489 10.4282H32.4511C36.6352 10.4282 40.0382 13.9672 40.0382 18.3171V33.8123Z" fill="#A61804"/>
</svg>
