<svg width="24" height="25" viewBox="0 0 24 25" fill="none" xmlns="http://www.w3.org/2000/svg">
<path d="M3.75062 13.7798C3.22562 13.1048 3.25062 12.1048 3.87562 11.4798C4.07562 11.2798 4.35062 11.1298 4.62562 11.0548C4.52562 10.8298 4.47562 10.5798 4.47562 10.3298C4.47562 9.85479 4.65062 9.42979 4.97562 9.10479C5.60062 8.47979 6.55062 8.42979 7.22562 8.92979C7.30062 8.72979 7.40062 8.52979 7.55062 8.35479C7.87562 8.00479 8.32562 7.77979 8.80062 7.77979C9.25062 7.75479 9.70062 7.92979 10.0256 8.25479C10.0756 8.17979 10.1256 8.07979 10.2006 8.02979C10.5256 7.67979 10.9756 7.45479 11.4506 7.45479C11.9506 7.42979 12.4006 7.62979 12.7256 7.95479L15.2256 10.4298C15.5006 9.37979 16.5006 8.65479 17.6006 8.77979C17.9006 8.80479 18.1756 8.95479 18.3756 9.15479C18.8256 8.65479 19.5256 8.35479 20.2506 8.42979C20.9256 8.50479 21.4506 9.07979 21.4506 9.77979L21.4256 13.4048C21.4256 14.3548 21.5506 15.3298 21.7756 16.1798V16.2048C22.2756 17.9548 21.7756 19.8298 20.5006 21.1048C19.1756 22.4298 17.4006 23.1548 15.5506 23.1548C15.4006 23.1548 15.2256 23.1548 15.0756 23.1298C14.3756 23.3548 13.6256 23.4798 12.9006 23.4798C11.1006 23.4798 9.30062 22.8048 7.95062 21.4298L3.12562 16.5798C2.80062 16.2548 2.62562 15.8048 2.62562 15.3548C2.62562 14.8798 2.80062 14.4548 3.12562 14.1298C3.30062 13.9798 3.52562 13.8548 3.75062 13.7798ZM12.0006 8.67979C11.8506 8.52979 11.6506 8.47979 11.4756 8.47979C11.2756 8.47979 11.1006 8.57979 10.9756 8.70479C10.9006 8.80479 10.8506 8.92979 10.8506 9.05479L14.9756 13.2798L15.1006 11.7548L12.0006 8.67979ZM19.7756 20.4048C20.8006 19.3798 21.1756 17.9048 20.8006 16.5298C20.5256 15.5298 20.4006 14.4798 20.4006 13.4298L20.4256 9.80479C20.4256 9.65479 20.3006 9.50479 20.1506 9.50479C19.5006 9.42979 18.9256 9.90479 18.8506 10.5298L18.8006 11.1298L18.7756 13.7548C18.7756 14.7048 18.9006 15.6548 19.1006 16.5048C19.1006 16.5298 19.1256 16.5298 19.1256 16.5548C19.6256 18.3048 19.1256 20.1798 17.8506 21.4548C17.7256 21.5798 17.5756 21.7048 17.4506 21.8298C18.3256 21.5298 19.1256 21.0548 19.7756 20.4048ZM3.85062 15.8798L8.67562 20.7298C11.0006 23.0548 14.8006 23.0548 17.1256 20.7298C18.1256 19.7298 18.5256 18.2548 18.1506 16.8798V16.8548C17.8756 15.8298 17.7506 14.8048 17.7506 13.7548V11.1298V11.0548V10.1298C17.7506 9.97979 17.6256 9.82979 17.4756 9.82979C16.8256 9.75479 16.2506 10.2298 16.1756 10.8548L16.0006 13.3798C15.9506 13.7548 15.7006 14.0798 15.3506 14.2048C14.9756 14.3298 14.6006 14.2298 14.3256 13.9798L9.37562 9.02979C9.22562 8.87979 9.10062 8.80479 8.85062 8.82979C8.65062 8.82979 8.47562 8.92979 8.35062 9.05479C8.12562 9.30479 8.15062 9.80479 8.42562 10.0798L12.1006 13.7798C12.3006 13.9798 12.3006 14.3048 12.1006 14.5048C12.0006 14.6048 11.8756 14.6548 11.7256 14.6548C11.6006 14.6548 11.4506 14.6048 11.3506 14.5048L7.65062 10.8048L6.67562 9.82979C6.40062 9.55479 5.95062 9.55479 5.67562 9.82979C5.55062 9.95479 5.47562 10.1298 5.47562 10.3298C5.47562 10.5298 5.55062 10.7048 5.67562 10.8298L10.3756 15.5048C10.5756 15.7048 10.5756 16.0298 10.3756 16.2298C10.2756 16.3298 10.1506 16.3798 10.0006 16.3798C9.85062 16.3798 9.72562 16.3298 9.62562 16.2298L7.00062 13.6048L5.60062 12.2048C5.32562 11.9298 4.87562 11.9298 4.60062 12.2048C4.32562 12.4798 4.32562 12.9298 4.60062 13.2048L5.55062 14.1548L6.25062 14.8298L8.65062 17.2298C8.85062 17.4298 8.85062 17.7548 8.65062 17.9548C8.55062 18.0548 8.42562 18.1048 8.27562 18.1048C8.12562 18.1048 8.00062 18.0548 7.90062 17.9548L4.82562 14.8798C4.55062 14.6048 4.10062 14.6048 3.82562 14.8798C3.70062 15.0048 3.62562 15.1798 3.62562 15.3798C3.62562 15.5798 3.70062 15.7548 3.85062 15.8798ZM7.07562 5.22979L5.80062 2.50479C5.67562 2.25479 5.37562 2.12979 5.12562 2.25479C4.87562 2.37979 4.75062 2.67979 4.87562 2.92979L6.12562 5.67979C6.22562 5.87979 6.40062 5.97979 6.60062 5.97979C6.67562 5.97979 6.75062 5.95479 6.82562 5.92979C7.07562 5.80479 7.17562 5.47979 7.07562 5.22979ZM9.75062 2.45479C9.82562 2.17979 9.65062 1.90479 9.37562 1.82979C9.10062 1.75479 8.82562 1.90479 8.75062 2.17979L7.97562 5.07979C7.90062 5.35479 8.07562 5.62979 8.35062 5.70479C8.40062 5.70479 8.45062 5.72979 8.47562 5.72979C8.70062 5.72979 8.90062 5.57979 8.97562 5.35479L9.75062 2.45479ZM2.27562 5.95479L5.00062 7.22979C5.07562 7.25479 5.15062 7.27979 5.22562 7.27979C5.42562 7.27979 5.60062 7.17979 5.70062 6.97979C5.82562 6.72979 5.70062 6.40479 5.45062 6.30479L2.72562 5.02979C2.47562 4.90479 2.15062 5.02979 2.05062 5.27979C1.90062 5.52979 2.02562 5.82979 2.27562 5.95479Z" fill="#373234"/>
</svg>
