<svg width="15" height="17" viewBox="0 0 15 17" fill="none" xmlns="http://www.w3.org/2000/svg">
<path d="M12.0536 8.40149L7.49961 12.9951L2.94561 8.40149C2.39361 7.84469 1.56561 7.84469 1.01361 8.40149C0.461609 8.95829 0.461609 9.79349 1.01361 10.3503L6.53361 15.9183C6.80961 16.1967 7.15461 16.3359 7.49961 16.3359C7.84461 16.3359 8.18961 16.1967 8.46561 15.9183L13.9856 10.3503C14.5376 9.79349 14.5376 8.95829 13.9856 8.40149C13.4336 7.84469 12.6056 7.84469 12.0536 8.40149Z" fill="#F4F2F0"/>
<path d="M13.9856 0.745481C13.4336 0.188681 12.6056 0.188681 12.0536 0.745481L7.49961 5.33908L2.94561 0.745481C2.39361 0.188681 1.56561 0.188681 1.01361 0.745481C0.461609 1.30228 0.461609 2.13748 1.01361 2.69428L6.53361 8.26229C6.80961 8.54069 7.15461 8.67989 7.49961 8.67989C7.84461 8.67989 8.18961 8.54069 8.46561 8.26229L13.9856 2.69428C14.5376 2.13748 14.5376 1.30228 13.9856 0.745481Z" fill="#F4F2F0"/>
</svg>
