<svg width="20" height="21" viewBox="0 0 20 21" fill="none" xmlns="http://www.w3.org/2000/svg">
<g clip-path="url(#clip0)">
<path d="M15.2155 2.08525C15.0894 1.9598 14.9001 1.92246 14.7358 1.99078C14.5714 2.0591 14.4642 2.21965 14.4642 2.39758V4.74823C12.0848 4.84287 10.8934 5.82925 10.7113 5.99324C9.51084 6.97842 8.69122 8.35129 8.39351 9.87525C8.24466 10.6116 8.21799 11.3674 8.31487 12.1123L8.31522 12.1149C8.31608 12.1214 8.31711 12.1282 8.31814 12.1347L8.41175 12.6728C8.44324 12.854 8.58418 12.9967 8.76504 13.0304C8.94607 13.0641 9.12882 12.9817 9.22347 12.8239L9.50396 12.3563C10.3657 10.9234 11.4397 9.97351 12.6964 9.53315C13.2633 9.33268 13.8638 9.24474 14.4642 9.274V11.7086C14.4642 11.8869 14.5718 12.0478 14.7366 12.1158C14.9017 12.1839 15.0913 12.1457 15.2171 12.0192L19.8724 7.34031C20.044 7.16788 20.0433 6.88893 19.8709 6.71737L15.2155 2.08525ZM15.3455 10.641V8.87769C15.3455 8.66156 15.1885 8.47726 14.975 8.44284C14.5981 8.38209 13.593 8.28556 12.4051 8.70182C11.1379 9.1458 10.0415 10.0195 9.13863 11.3032C9.13605 10.8814 9.17597 10.4603 9.25788 10.0465C9.52564 8.6927 10.2057 7.55558 11.279 6.66712C11.2885 6.65938 11.2974 6.65129 11.3062 6.64268C11.337 6.61412 12.4559 5.60399 14.9013 5.62224H14.9046C15.1479 5.62224 15.3453 5.42486 15.3455 5.18153V3.45744L18.9373 7.03125L15.3455 10.641Z" fill="#373234"/>
<path d="M18.3856 14.9289C18.1425 14.9289 17.9451 15.1261 17.9451 15.3694V17.2312C17.9444 17.9608 17.3531 18.5519 16.6235 18.5527H2.20265C1.47302 18.5519 0.881922 17.9608 0.881061 17.2312V6.73586C0.881922 6.00623 1.47302 5.41512 2.20265 5.41426H5.24937C5.4927 5.41426 5.6899 5.21706 5.6899 4.97373C5.6899 4.73041 5.4927 4.5332 5.24937 4.5332H2.20265C0.98672 4.53458 0.00137666 5.51992 0 6.73586V17.2312C0.00137666 18.4471 0.98672 19.4324 2.20265 19.4338H16.6235C17.8394 19.4324 18.8248 18.4471 18.8261 17.2312V15.3694C18.8261 15.1261 18.6289 14.9289 18.3856 14.9289Z" fill="#373234"/>
</g>
<defs>
<clipPath id="clip0">
<rect width="20" height="20" fill="white" transform="translate(0 0.679688)"/>
</clipPath>
</defs>
</svg>
