<svg width="25" height="25" viewBox="0 0 25 25" fill="none" xmlns="http://www.w3.org/2000/svg">
<path d="M22.4993 21.6104L21.0678 5.4908C21.0371 5.13292 20.7354 4.86196 20.3827 4.86196H17.4379C17.397 2.1728 15.1986 0 12.4993 0C9.79987 0 7.6015 2.1728 7.5606 4.86196H4.61582C4.25794 4.86196 3.96142 5.13292 3.93075 5.4908L2.49925 21.6104C2.49925 21.6309 2.49414 21.6513 2.49414 21.6718C2.49414 23.5072 4.17614 25 6.2467 25H18.7518C20.8224 25 22.5044 23.5072 22.5044 21.6718C22.5044 21.6513 22.5044 21.6309 22.4993 21.6104ZM12.4993 1.38037C14.4369 1.38037 16.0166 2.93456 16.0575 4.86196H8.94097C8.98187 2.93456 10.5616 1.38037 12.4993 1.38037ZM18.7518 23.6196H6.2467C4.94813 23.6196 3.89496 22.7607 3.87451 21.7025L5.24465 6.24744H7.55549V8.34356C7.55549 8.72699 7.86224 9.03374 8.24567 9.03374C8.62911 9.03374 8.93586 8.72699 8.93586 8.34356V6.24744H16.0575V8.34356C16.0575 8.72699 16.3643 9.03374 16.7477 9.03374C17.1312 9.03374 17.4379 8.72699 17.4379 8.34356V6.24744H19.7487L21.124 21.7025C21.1035 22.7607 20.0453 23.6196 18.7518 23.6196Z" fill="#F4F2F0"/>
</svg>
