<svg width="50" height="50" viewBox="0 0 50 50" fill="none" xmlns="http://www.w3.org/2000/svg">
<path d="M25.0017 49.9996C38.8087 49.9996 50.0015 38.8068 50.0015 24.9998C50.0015 11.1928 38.8087 0 25.0017 0C11.1947 0 0.00195312 11.1928 0.00195312 24.9998C0.00195312 38.8068 11.1947 49.9996 25.0017 49.9996Z" fill="#A61804"/>
<path d="M40.3139 17.9666C39.2426 18.4417 38.0902 18.763 36.8816 18.9065C38.1156 18.1672 39.0626 16.9974 39.5096 15.6012C38.3549 16.2861 37.0754 16.783 35.7149 17.0508C34.6248 15.8899 33.0718 15.1644 31.352 15.1644C28.0525 15.1644 25.3764 17.8405 25.3764 21.1401C25.3764 21.6085 25.4294 22.0643 25.5319 22.502C20.5656 22.2529 16.1622 19.874 13.2147 16.2576C12.7005 17.14 12.4054 18.1672 12.4054 19.2621C12.4054 21.3348 13.4612 23.1646 15.0637 24.236C14.0846 24.2052 13.1626 23.9365 12.3573 23.4877C12.3569 23.5131 12.3569 23.5385 12.3569 23.5635C12.3569 26.4588 14.4175 28.8738 17.1507 29.4224C16.6498 29.5596 16.1208 29.6323 15.5767 29.6323C15.1907 29.6323 14.8168 29.5953 14.4523 29.5258C15.2126 31.8993 17.4189 33.627 20.0344 33.6756C17.9889 35.2786 15.4127 36.2336 12.6122 36.2336C12.1309 36.2336 11.6541 36.2055 11.1875 36.1498C13.8306 37.846 16.9724 38.8348 20.3468 38.8348C31.3382 38.8348 37.3491 29.7294 37.3491 21.8322C37.3491 21.5732 37.3433 21.3152 37.3317 21.0594C38.5002 20.2171 39.5131 19.165 40.3139 17.9666Z" fill="#F1F2F2"/>
</svg>
